<?xml version="1.0" encoding="UTF-8" standalone="no"?>
<!-- Generator: Adobe Illustrator 18.1.1, SVG Export Plug-In . SVG Version: 6.00 Build 0)  -->

<svg
   xmlns:dc="http://purl.org/dc/elements/1.1/"
   xmlns:cc="http://creativecommons.org/ns#"
   xmlns:rdf="http://www.w3.org/1999/02/22-rdf-syntax-ns#"
   xmlns:svg="http://www.w3.org/2000/svg"
   xmlns="http://www.w3.org/2000/svg"
   xmlns:sodipodi="http://sodipodi.sourceforge.net/DTD/sodipodi-0.dtd"
   xmlns:inkscape="http://www.inkscape.org/namespaces/inkscape"
   version="1.1"
   id="Capa_1"
   x="0px"
   y="0px"
   viewBox="0 0 46.393 46.393"
   style="enable-background:new 0 0 46.393 46.393;"
   xml:space="preserve"
   sodipodi:docname="movement.svg"
   inkscape:version="0.92.3 (2405546, 2018-03-11)"><metadata
   id="metadata41"><rdf:RDF><cc:Work
       rdf:about=""><dc:format>image/svg+xml</dc:format><dc:type
         rdf:resource="http://purl.org/dc/dcmitype/StillImage" /></cc:Work></rdf:RDF></metadata><defs
   id="defs39" /><sodipodi:namedview
   pagecolor="#ffffff"
   bordercolor="#666666"
   borderopacity="1"
   objecttolerance="10"
   gridtolerance="10"
   guidetolerance="10"
   inkscape:pageopacity="0"
   inkscape:pageshadow="2"
   inkscape:window-width="1758"
   inkscape:window-height="1034"
   id="namedview37"
   showgrid="false"
   inkscape:zoom="20.347897"
   inkscape:cx="7.826621"
   inkscape:cy="31.875421"
   inkscape:window-x="0"
   inkscape:window-y="0"
   inkscape:window-maximized="0"
   inkscape:current-layer="Capa_1" />
<path
   style="fill:#ffffff;stroke:none;stroke-width:1px;stroke-linecap:butt;stroke-linejoin:miter;stroke-opacity:1;fill-opacity:1"
   d="m 19.117455,11.49996 h -4.816223 l -0.491451,-1.5234989 8.108946,-8.7478329 3.046998,0.09829 7.666641,8.5512524 -0.245726,1.1794834 -4.423062,0.688032 -0.540596,7.420914 c 0,0 7.814075,-0.04914 7.715785,-0.245725 -0.09829,-0.196581 -0.294871,-4.570497 -0.09829,-4.717933 0.19658,-0.147435 1.769224,-0.589741 1.769224,-0.589741 l 8.551253,8.944413 -0.589742,2.555547 -8.108946,7.814075 c 0,0 -1.867515,-0.835467 -1.91666,-1.032047 -0.04915,-0.196581 -0.393161,-4.373917 -0.393161,-4.373917 h -6.585447 l -0.196581,6.192286 0.688032,1.326919 3.980756,0.147435 0.19658,2.752127 -8.158091,7.273479 -2.408112,-0.09829 -7.420914,-7.912366 -0.688032,-1.670934 1.965805,-0.933757 2.948708,-0.393161 0.294871,-6.290577 -6.880318,-0.638887 -0.884613,3.440159 c 0,0 -0.09829,1.867515 -0.344016,1.867515 -0.245725,0 -2.5555462,-1.277773 -2.5555462,-1.277773 L 0.88461232,22.99992 1.6709344,21.034115 9.6815904,13.957217 11.59825,14.596103 11.745686,19.1666 h 7.470059 z"
   id="path4554"
   inkscape:connector-curvature="0" /><g
   id="g4"
   style="fill:#000000;fill-opacity:1"
   inkscape:export-filename="D:\Projets\LD42\ld42\ld42\LD42RunningOutOfSpace\Assets\Sprites\icons\movement.png"
   inkscape:export-xdpi="413.85999"
   inkscape:export-ydpi="413.85999">
	<path
   style="fill:#000000;fill-opacity:1"
   d="M45.253,20.419l-6.858-6.861c-0.658-0.66-1.367-0.994-2.104-0.994c-1.142,0-2.37,0.892-2.37,2.849   v2.798h-5.703v-5.756h2.745c1.957,0,2.849-1.228,2.849-2.37c0-0.736-0.334-1.444-0.994-2.105l-6.861-6.858   c-1.471-1.471-4.043-1.471-5.518,0L13.577,7.98c-0.659,0.66-0.994,1.368-0.994,2.105c0,1.141,0.892,2.37,2.849,2.37h2.798v5.756   h-5.755v-2.798c0-1.957-1.229-2.849-2.371-2.849c-0.737,0-1.445,0.335-2.104,0.994L1.14,20.42c-1.52,1.522-1.519,3.997,0,5.517   L8,32.799c0.66,0.66,1.368,0.994,2.104,0.994c1.142,0,2.371-0.893,2.371-2.85v-2.746h5.755v5.704h-2.798   c-1.957,0-2.849,1.228-2.849,2.37c0,0.737,0.334,1.445,0.994,2.105l6.862,6.858c0.736,0.735,1.716,1.14,2.759,1.14   s2.022-0.404,2.759-1.141l6.863-6.859c0.658-0.659,0.992-1.367,0.992-2.104c0-1.141-0.892-2.37-2.849-2.37h-2.745v-5.704h5.703   v2.746c0,1.957,1.229,2.85,2.37,2.85c0.735,0,1.444-0.334,2.104-0.994l6.858-6.862C46.773,24.416,46.773,21.942,45.253,20.419z    M43.839,24.523l-6.856,6.861c-0.264,0.263-0.51,0.409-0.692,0.409c-0.272,0-0.37-0.457-0.37-0.85v-4.746h-9.703v9.704h4.744   c0.393,0,0.85,0.097,0.85,0.37c0,0.182-0.146,0.428-0.408,0.691l-6.862,6.857c-0.717,0.715-1.974,0.715-2.69,0l-6.861-6.857   c-0.264-0.264-0.409-0.508-0.409-0.691c0-0.273,0.457-0.37,0.849-0.37v0.001h4.8v-9.703h-9.755v4.746   c0,0.391-0.097,0.848-0.371,0.848c-0.182,0-0.427-0.145-0.69-0.407l-6.859-6.862c-0.741-0.742-0.74-1.949,0-2.691l6.859-6.861   c0.263-0.264,0.508-0.408,0.69-0.408c0.274,0,0.371,0.457,0.371,0.849v4.798h9.755v-9.756h-4.798c-0.392,0-0.849-0.097-0.849-0.37   c0-0.182,0.145-0.427,0.408-0.691l6.86-6.857c0.717-0.716,1.974-0.717,2.691-0.001l6.861,6.857c0.263,0.264,0.408,0.51,0.408,0.692   c0,0.273-0.457,0.37-0.849,0.37h-4.745v9.756h9.702v-4.798c0-0.392,0.097-0.849,0.37-0.849c0.184,0,0.428,0.144,0.691,0.408   l6.857,6.86C44.579,22.575,44.579,23.782,43.839,24.523z"
   id="path2" />
</g>
<g
   id="g6">
</g>
<g
   id="g8">
</g>
<g
   id="g10">
</g>
<g
   id="g12">
</g>
<g
   id="g14">
</g>
<g
   id="g16">
</g>
<g
   id="g18">
</g>
<g
   id="g20">
</g>
<g
   id="g22">
</g>
<g
   id="g24">
</g>
<g
   id="g26">
</g>
<g
   id="g28">
</g>
<g
   id="g30">
</g>
<g
   id="g32">
</g>
<g
   id="g34">
</g>
</svg>